<svg xmlns="http://www.w3.org/2000/svg" viewBox="0 0 566.9 566.9" style="enable-background:new 0 0 566.9 566.9" xml:space="preserve"><path d="M562.1 283.5c0-154-124.9-278.6-278.6-278.6-154 0-278.6 124.8-278.6 278.6 0 154 124.9 278.6 278.6 278.6s278.6-124.8 278.6-278.6M62.9 162.2h135.7L86.7 438.8h394.6c-46 58.6-117.6 96.1-198 96.1-139 0-251.7-112.7-251.7-251.7.2-43.7 11.4-85 31.3-121m381.8 120.3v-34h-68.2v-86.1h127.2c19.9 36 31.1 77.3 31.1 121.3S523.6 369 503.7 405h-322l111.7-276.6H85.5c46-58.6 117.6-96.1 198-96.1 80.2 0 151.8 37.6 198 96.1H301.6V380h75.1v-97.5h68z" style="fill:#1179bf"/></svg>